HIERARCHY
ROOT Hips
{
	OFFSET 0.000000 71.427986 0.000000
	CHANNELS 6 Xposition Yposition Zposition Xrotation Yrotation Zrotation
	JOINT Pelvis
	{
		OFFSET 0.000000 0.000000 0.000000
		CHANNELS 3 Xrotation Yrotation Zrotation
		JOINT LeftUpLeg
		{
			OFFSET 6.797100 -2.508499 -1.318700
			CHANNELS 3 Xrotation Yrotation Zrotation
			JOINT LeftLeg
			{
				OFFSET 0.069008 -29.241863 0.690200
				CHANNELS 3 Xrotation Yrotation Zrotation
				JOINT LeftFoot
				{
					OFFSET -0.069008 -29.568123 -0.266800
					CHANNELS 3 Xrotation Yrotation Zrotation
					JOINT LeftToeBase
					{
						OFFSET 3.145500 -8.631000 16.059900
						CHANNELS 3 Xrotation Yrotation Zrotation
						End Site
						{
							OFFSET 0.000000 18.501587 0.000000
						}
					}
				}
			}
			JOINT Left_ShortSleeve
			{
				OFFSET 0.265923 -10.480953 1.153800
				CHANNELS 3 Xrotation Yrotation Zrotation
				End Site
				{
					OFFSET 1.725763 19.823879 0.000000
				}
			}
		}
		JOINT RightUpLeg
		{
			OFFSET -6.797100 -2.508499 -1.318700
			CHANNELS 3 Xrotation Yrotation Zrotation
			JOINT RightLeg
			{
				OFFSET -0.082453 -29.241932 0.688000
				CHANNELS 3 Xrotation Yrotation Zrotation
				JOINT RightFoot
				{
					OFFSET 0.082453 -29.568058 -0.264600
					CHANNELS 3 Xrotation Yrotation Zrotation
					JOINT RightToeBase
					{
						OFFSET -3.115300 -8.682800 16.113400
						CHANNELS 3 Xrotation Yrotation Zrotation
						End Site
						{
							OFFSET 0.000000 18.567114 0.000000
						}
					}
				}
			}
			JOINT Right_ShortSleeve
			{
				OFFSET -0.265923 -10.480953 1.153800
				CHANNELS 3 Xrotation Yrotation Zrotation
				End Site
				{
					OFFSET -1.725766 19.823910 0.000000
				}
			}
		}
	}
	JOINT Spine
	{
		OFFSET 0.000000 13.368103 0.470500
		CHANNELS 3 Xrotation Yrotation Zrotation
		JOINT Spine1
		{
			OFFSET 0.147000 13.837402 0.538800
			CHANNELS 3 Xrotation Yrotation Zrotation
			JOINT Spine2
			{
				OFFSET 0.168000 16.242897 -1.435500
				CHANNELS 3 Xrotation Yrotation Zrotation
				JOINT Neck
				{
					OFFSET 0.217200 18.631500 -1.679100
					CHANNELS 3 Xrotation Yrotation Zrotation
					JOINT Head
					{
						OFFSET 0.000000 6.599396 1.385900
						CHANNELS 3 Xrotation Yrotation Zrotation
						JOINT Hat
						{
							OFFSET -0.532200 27.220596 -10.096100
							CHANNELS 3 Xrotation Yrotation Zrotation
							End Site
							{
								OFFSET 0.000000 22.029861 0.000000
							}
						}
						JOINT HairD
						{
							OFFSET -10.777400 17.437393 -1.325900
							CHANNELS 3 Xrotation Yrotation Zrotation
							JOINT HairD1
							{
								OFFSET -3.290299 -11.051193 1.062200
								CHANNELS 3 Xrotation Yrotation Zrotation
								End Site
								{
									OFFSET 0.000000 11.579437 0.000000
								}
							}
						}
						JOINT HairB
						{
							OFFSET -10.777400 17.437393 1.467900
							CHANNELS 3 Xrotation Yrotation Zrotation
							JOINT HairB1
							{
								OFFSET -1.561200 -12.956299 3.590200
								CHANNELS 3 Xrotation Yrotation Zrotation
								End Site
								{
									OFFSET 0.000000 13.534866 0.000000
								}
							}
						}
						JOINT HairA
						{
							OFFSET 9.713100 17.437393 1.467900
							CHANNELS 3 Xrotation Yrotation Zrotation
							JOINT HairA1
							{
								OFFSET 1.561200 -12.956299 3.590200
								CHANNELS 3 Xrotation Yrotation Zrotation
								End Site
								{
									OFFSET 0.000000 13.534866 0.000000
								}
							}
						}
						JOINT HairC
						{
							OFFSET 9.713100 17.437393 -1.325900
							CHANNELS 3 Xrotation Yrotation Zrotation
							JOINT HairC1
							{
								OFFSET 3.290300 -11.051193 1.062200
								CHANNELS 3 Xrotation Yrotation Zrotation
								End Site
								{
									OFFSET 0.000000 11.579437 0.000000
								}
							}
						}
					}
				}
				JOINT LeftShoulder
				{
					OFFSET 5.101800 15.108002 -2.763700
					CHANNELS 3 Xrotation Yrotation Zrotation
					JOINT LeftArm
					{
						OFFSET 9.825497 2.506317 -1.597400
						CHANNELS 3 Xrotation Yrotation Zrotation
						JOINT LeftForeArm
						{
							OFFSET 21.966244 0.000000 0.000000
							CHANNELS 3 Xrotation Yrotation Zrotation
							JOINT LeftHand
							{
								OFFSET 33.879036 0.000000 0.000000
								CHANNELS 3 Xrotation Yrotation Zrotation
								JOINT LeftHandThumb1
								{
									OFFSET 6.715286 -2.359680 3.363841
									CHANNELS 3 Xrotation Yrotation Zrotation
									JOINT LeftHandThumb2
									{
										OFFSET 2.507072 -1.447464 1.447461
										CHANNELS 3 Xrotation Yrotation Zrotation
										JOINT LeftHandThumb3
										{
											OFFSET 2.898338 -1.673355 1.673357
											CHANNELS 3 Xrotation Yrotation Zrotation
											End Site
											{
												OFFSET -0.295959 3.727692 -0.131651
											}
										}
									}
								}
								JOINT LeftHandIndex1
								{
									OFFSET 14.190811 -0.254547 3.840278
									CHANNELS 3 Xrotation Yrotation Zrotation
									JOINT LeftHandIndex2
									{
										OFFSET 3.551727 0.000000 -0.000000
										CHANNELS 3 Xrotation Yrotation Zrotation
										JOINT LeftHandIndex3
										{
											OFFSET 2.894196 0.000000 0.000000
											CHANNELS 3 Xrotation Yrotation Zrotation
											End Site
											{
												OFFSET -1.000603 2.690872 0.366626
											}
										}
									}
								}
								JOINT LeftHandMiddle1
								{
									OFFSET 13.776489 0.000000 0.000000
									CHANNELS 3 Xrotation Yrotation Zrotation
									JOINT LeftHandMiddle2
									{
										OFFSET 3.438232 0.000000 0.000000
										CHANNELS 3 Xrotation Yrotation Zrotation
										JOINT LeftHandMiddle3
										{
											OFFSET 3.691551 0.000000 0.000000
											CHANNELS 3 Xrotation Yrotation Zrotation
											End Site
											{
												OFFSET -1.082298 3.499527 0.457670
											}
										}
									}
								}
								JOINT LeftHandRing1
								{
									OFFSET 13.966164 -0.268127 -3.067488
									CHANNELS 3 Xrotation Yrotation Zrotation
									JOINT LeftHandRing2
									{
										OFFSET 3.162567 0.000000 0.000000
										CHANNELS 3 Xrotation Yrotation Zrotation
										JOINT LeftHandRing3
										{
											OFFSET 3.324348 0.000000 0.000000
											CHANNELS 3 Xrotation Yrotation Zrotation
											End Site
											{
												OFFSET -0.861900 3.184998 0.405154
											}
										}
									}
								}
								JOINT LeftHandPinky1
								{
									OFFSET 13.131393 -0.168503 -5.746925
									CHANNELS 3 Xrotation Yrotation Zrotation
									JOINT LeftHandPinky2
									{
										OFFSET 2.849182 0.000000 0.000000
										CHANNELS 3 Xrotation Yrotation Zrotation
										JOINT LeftHandPinky3
										{
											OFFSET 2.805038 0.000000 0.000000
											CHANNELS 3 Xrotation Yrotation Zrotation
											End Site
											{
												OFFSET -0.882500 2.642609 0.325652
											}
										}
									}
								}
							}
							JOINT Left_Sleeve
							{
								OFFSET 6.592125 -0.646545 0.805568
								CHANNELS 3 Xrotation Yrotation Zrotation
								End Site
								{
									OFFSET -0.000179 20.275787 -0.000000
								}
							}
						}
					}
				}
				JOINT RightShoulder
				{
					OFFSET -5.731700 15.108002 -2.763700
					CHANNELS 3 Xrotation Yrotation Zrotation
					JOINT RightArm
					{
						OFFSET -9.825497 2.506317 -1.597400
						CHANNELS 3 Xrotation Yrotation Zrotation
						JOINT RightForeArm
						{
							OFFSET -21.966242 0.000000 0.000000
							CHANNELS 3 Xrotation Yrotation Zrotation
							JOINT RightHand
							{
								OFFSET -33.879032 0.000000 0.000000
								CHANNELS 3 Xrotation Yrotation Zrotation
								JOINT RightHandThumb1
								{
									OFFSET -6.715286 -2.359680 3.363841
									CHANNELS 3 Xrotation Yrotation Zrotation
									JOINT RightHandThumb2
									{
										OFFSET -2.507072 -1.447464 1.447461
										CHANNELS 3 Xrotation Yrotation Zrotation
										JOINT RightHandThumb3
										{
											OFFSET -2.898338 -1.673355 1.673357
											CHANNELS 3 Xrotation Yrotation Zrotation
											End Site
											{
												OFFSET 0.295959 3.727692 -0.131651
											}
										}
									}
								}
								JOINT RightHandIndex1
								{
									OFFSET -14.190811 -0.254547 3.840278
									CHANNELS 3 Xrotation Yrotation Zrotation
									JOINT RightHandIndex2
									{
										OFFSET -3.551727 0.000000 -0.000000
										CHANNELS 3 Xrotation Yrotation Zrotation
										JOINT RightHandIndex3
										{
											OFFSET -2.894196 0.000000 0.000000
											CHANNELS 3 Xrotation Yrotation Zrotation
											End Site
											{
												OFFSET 1.000603 2.690872 0.366626
											}
										}
									}
								}
								JOINT RightHandMiddle1
								{
									OFFSET -13.776489 0.000000 0.000000
									CHANNELS 3 Xrotation Yrotation Zrotation
									JOINT RightHandMiddle2
									{
										OFFSET -3.438232 0.000000 0.000000
										CHANNELS 3 Xrotation Yrotation Zrotation
										JOINT RightHandMiddle3
										{
											OFFSET -3.691551 0.000000 0.000000
											CHANNELS 3 Xrotation Yrotation Zrotation
											End Site
											{
												OFFSET 1.082298 3.499527 0.457670
											}
										}
									}
								}
								JOINT RightHandRing1
								{
									OFFSET -13.966164 -0.268127 -3.067488
									CHANNELS 3 Xrotation Yrotation Zrotation
									JOINT RightHandRing2
									{
										OFFSET -3.162567 0.000000 0.000000
										CHANNELS 3 Xrotation Yrotation Zrotation
										JOINT RightHandRing3
										{
											OFFSET -3.324348 0.000000 0.000000
											CHANNELS 3 Xrotation Yrotation Zrotation
											End Site
											{
												OFFSET 0.861900 3.184998 0.405154
											}
										}
									}
								}
								JOINT RightHandPinky1
								{
									OFFSET -13.131393 -0.168503 -5.746925
									CHANNELS 3 Xrotation Yrotation Zrotation
									JOINT RightHandPinky2
									{
										OFFSET -2.849182 0.000000 0.000000
										CHANNELS 3 Xrotation Yrotation Zrotation
										JOINT RightHandPinky3
										{
											OFFSET -2.805038 0.000000 0.000000
											CHANNELS 3 Xrotation Yrotation Zrotation
											End Site
											{
												OFFSET 0.882500 2.642609 0.325652
											}
										}
									}
								}
							}
							JOINT Right_Sleeve
							{
								OFFSET -6.592125 -0.646545 0.805568
								CHANNELS 3 Xrotation Yrotation Zrotation
								End Site
								{
									OFFSET 0.000179 20.275787 -0.000000
								}
							}
						}
					}
				}
				JOINT Bind_Right_JacketString
				{
					OFFSET -3.534800 11.969597 7.200700
					CHANNELS 3 Xrotation Yrotation Zrotation
					JOINT Bind_Right_JacketString1
					{
						OFFSET -0.319900 -6.102600 2.794100
						CHANNELS 3 Xrotation Yrotation Zrotation
						End Site
						{
							OFFSET 0.000000 6.719452 0.000000
						}
					}
				}
				JOINT Bind_Left_JacketString
				{
					OFFSET 2.904800 11.969597 7.200700
					CHANNELS 3 Xrotation Yrotation Zrotation
					JOINT Bind_Left_JacketString1
					{
						OFFSET 0.364800 -5.904503 3.186800
						CHANNELS 3 Xrotation Yrotation Zrotation
						End Site
						{
							OFFSET 0.000000 6.719513 0.000000
						}
					}
				}
				JOINT HairE
				{
					OFFSET 5.915200 17.612701 -11.592200
					CHANNELS 3 Xrotation Yrotation Zrotation
					JOINT HairE1
					{
						OFFSET 0.289200 -7.171898 -1.284500
						CHANNELS 3 Xrotation Yrotation Zrotation
						End Site
						{
							OFFSET 0.000000 7.291756 0.000000
						}
					}
				}
				JOINT HairF
				{
					OFFSET -0.864800 17.612701 -11.592200
					CHANNELS 3 Xrotation Yrotation Zrotation
					JOINT HairF1
					{
						OFFSET 0.000000 -14.087097 -2.127501
						CHANNELS 3 Xrotation Yrotation Zrotation
						End Site
						{
							OFFSET 0.000000 14.246841 0.000000
						}
					}
				}
				JOINT HairG
				{
					OFFSET -8.087700 17.612701 -11.592200
					CHANNELS 3 Xrotation Yrotation Zrotation
					JOINT HairG1
					{
						OFFSET -0.293600 -6.081398 -0.910100
						CHANNELS 3 Xrotation Yrotation Zrotation
						End Site
						{
							OFFSET 0.000000 6.156120 0.000000
						}
					}
				}
			}
		}
	}
	JOINT Pouch
	{
		OFFSET 0.000000 4.394501 10.847300
		CHANNELS 3 Xrotation Yrotation Zrotation
		End Site
		{
			OFFSET 0.000000 21.880577 0.000000
		}
	}
	JOINT Bag
	{
		OFFSET -13.229000 4.813004 -0.593300
		CHANNELS 3 Xrotation Yrotation Zrotation
		End Site
		{
			OFFSET 0.000000 21.880577 0.000000
		}
	}
	JOINT OccupyGuyFacialAnim_Joint
	{
		OFFSET 1.000000 -70.206398 -1.655000
		CHANNELS 3 Xrotation Yrotation Zrotation
		End Site
		{
			OFFSET 0.000000 21.880577 0.000000
		}
	}
}
MOTION
Frames: 4
Frame Time: 0.033333
0.013405 64.567390 0.099886 9.541005 -61.607794 10.158419 0.000000 -0.000000 -0.000000 -34.029601 13.171075 22.629479 36.646851 -7.053207 1.214135 -8.818923 -1.958655 -15.290302 -0.000000 0.000002 -0.000000 -0.000000 0.000002 0.000001 -29.115911 -21.179452 -31.081852 35.644759 3.726091 -4.105236 -13.967206 0.517904 21.598189 0.000000 -0.000000 0.000000 -0.000003 0.000000 -0.000000 15.066588 -0.337650 -4.291461 5.873692 0.571207 -2.801500 5.868590 0.648869 -2.855445 -3.633128 1.441422 3.748459 -20.003985 54.833599 2.407832 -0.000000 0.000000 -0.000000 -0.000000 0.000000 -0.000000 -0.000000 0.000000 0.000000 -0.000000 0.000000 -0.000001 0.000000 0.000000 -0.000000 -0.000000 0.000000 -0.000001 0.000000 0.000000 -0.000000 -0.000000 0.000000 -0.000000 -0.000000 0.000000 -0.000000 1.828087 -3.192689 -12.271550 -39.387737 26.350923 -34.910210 0.433824 -46.808745 0.411411 -10.315519 -0.130327 0.363091 40.109927 -15.297150 -0.360513 5.639857 28.097931 11.338804 0.000000 0.000001 -0.000000 6.882241 2.840071 -61.140459 8.248012 7.640017 -89.897871 -0.000004 0.000000 -0.000002 -2.345535 4.688866 -62.655224 8.754124 9.897102 -87.051280 -0.000000 0.000001 -0.000001 -9.042515 10.045659 -60.766171 8.524172 9.508824 -66.893029 0.000001 0.000005 -0.000003 -17.946930 14.755010 -51.485932 8.868411 8.666985 -84.811948 -0.000002 -0.000003 0.000002 0.000000 0.000004 -0.000004 0.631343 7.259590 8.703916 7.937566 -9.680179 53.429360 -22.866828 36.193517 17.964823 -27.376310 10.434168 -17.813132 -2.346187 -6.100529 10.731413 2.364061 -23.806281 -8.771084 0.000000 0.000000 0.000006 -0.054731 0.532132 0.738671 0.019732 -0.087366 5.078569 -0.000001 0.000001 0.000000 0.348242 -5.918521 2.583796 1.432607 -4.204217 24.052067 0.000000 0.000001 -0.000002 1.205812 -11.756064 4.154733 1.794871 -3.771872 26.865456 -0.000000 0.000000 0.000001 2.126212 -19.166892 11.319905 3.354770 -2.122207 18.828583 0.000000 0.000001 0.000001 0.000002 -0.000001 0.000000 -0.000000 -0.000001 -0.000000 -0.000000 0.000003 -0.000000 -0.000000 -0.000001 -0.000001 -0.000000 -0.000001 -0.000001 -0.000000 -0.000001 -0.000000 -0.000000 0.000003 -0.000000 -0.000000 -0.000001 -0.000001 -0.000000 -0.000001 -0.000001 -0.000000 -0.000001 -0.000000 -0.000000 0.000003 -0.000000 0.000000 -0.000000 -0.000000 0.000000 -0.000000 -0.000000 0.000000 -0.000000 -0.000000 
-0.839262 64.447433 -1.018957 11.324569 -57.520308 12.378737 0.000000 0.000002 -0.000000 -34.784685 12.180655 21.657582 33.141058 -7.954434 0.901277 -6.449930 -3.340319 -16.169899 -0.000000 0.000000 0.000000 -0.000000 -0.000002 -0.000001 -30.912815 -21.926939 -31.744547 39.180304 2.798925 -4.189125 -16.892118 -1.571604 20.986280 -0.000000 0.000000 0.000000 0.000002 0.000000 0.000001 15.010128 -0.296318 -4.831187 5.889609 0.483406 -3.646338 5.897714 0.542569 -3.689106 -3.709448 1.541514 3.712068 -20.938898 56.485244 2.611407 0.000000 0.000000 0.000000 0.000000 0.000000 0.000000 0.000000 0.000000 0.000001 0.000000 0.000000 -0.000000 -0.000001 0.000000 -0.000001 0.000000 0.000000 -0.000000 -0.000001 0.000000 -0.000001 0.000000 0.000000 0.000000 0.000000 0.000000 0.000000 1.866584 -2.654565 -12.949911 -39.029975 26.929109 -34.520111 0.401350 -48.904721 0.428670 -10.865929 0.250932 0.875012 40.109931 -15.297150 -0.360515 5.639859 28.097928 11.338798 0.000000 0.000001 0.000000 6.882234 2.840067 -61.140459 8.248011 7.640021 -89.897871 -0.000000 0.000000 -0.000002 -2.345537 4.688861 -62.655224 8.754121 9.897099 -87.051280 0.000006 -0.000001 0.000001 -9.042510 10.045665 -60.766171 8.524173 9.508815 -66.893029 0.000001 0.000000 -0.000001 -17.946927 14.755010 -51.485925 8.868417 8.666986 -84.811941 0.000003 0.000001 0.000003 0.000002 -0.000002 0.000001 0.593840 7.263245 8.644857 7.885833 -9.778340 54.535065 -22.655408 34.043302 17.261987 -28.273773 10.340271 -17.718016 -2.346193 -6.100548 10.731460 2.364047 -23.806290 -8.771119 -0.000000 -0.000000 0.000004 -0.042372 1.167311 -3.205611 0.049492 -0.332908 6.780062 -0.000000 -0.000002 -0.000000 0.344500 -5.712693 1.305733 1.308060 -3.910110 22.070237 -0.000001 -0.000002 -0.000003 1.205816 -11.756080 4.154774 1.632611 -3.440273 24.709210 0.000001 -0.000001 -0.000000 2.110495 -19.052886 10.589452 3.230602 -1.757014 16.591974 0.000001 0.000001 -0.000003 0.000000 0.000000 -0.000002 -0.000001 0.000003 -0.000000 -0.000002 0.000000 -0.000000 -0.000001 0.000003 0.000000 -0.000001 0.000003 0.000000 -0.000001 0.000003 -0.000000 -0.000002 0.000000 -0.000000 -0.000001 0.000003 0.000000 -0.000001 0.000003 0.000000 -0.000001 0.000003 -0.000000 -0.000002 0.000000 -0.000000 0.000000 0.000002 -0.000000 0.000000 0.000002 -0.000000 0.000000 0.000002 -0.000000 
-1.814297 64.433716 -2.114636 12.616058 -53.423899 14.211032 0.000000 -0.000001 0.000000 -34.630736 11.566310 20.392588 28.030155 -8.695830 0.554760 -3.448247 -4.797162 -17.238544 0.000000 -0.000002 0.000000 -0.000003 -0.000002 -0.000002 -33.539149 -24.551013 -33.607946 41.915505 3.999518 -4.106209 -19.517607 -3.429652 19.501628 -0.000000 0.000000 0.000000 -0.000001 -0.000000 -0.000001 14.860878 -0.130294 -5.394930 5.937932 0.448465 -4.501512 5.948104 0.462570 -4.528823 -3.820009 1.823436 3.591646 -22.064207 58.161390 3.013177 0.000000 0.000000 0.000001 0.000000 0.000000 0.000001 0.000000 0.000000 0.000001 0.000000 0.000000 -0.000000 -0.000001 0.000000 -0.000000 0.000000 0.000000 -0.000000 -0.000001 0.000000 -0.000000 0.000000 0.000000 0.000001 0.000000 0.000000 0.000001 1.921812 -2.096343 -13.643446 -38.656258 27.501917 -34.148484 0.367468 -51.000507 0.444148 -11.403068 0.607024 1.396651 40.109927 -15.297146 -0.360515 5.639853 28.097931 11.338799 -0.000000 0.000002 -0.000001 6.882234 2.840070 -61.140459 8.248019 7.640022 -89.897871 -0.000001 0.000000 -0.000000 -2.345536 4.688865 -62.655224 8.754127 9.897100 -87.051280 -0.000000 0.000005 -0.000002 -9.042517 10.045667 -60.766171 8.524176 9.508817 -66.893029 0.000003 0.000002 0.000002 -17.946923 14.755010 -51.485928 8.868414 8.666986 -84.811948 -0.000001 -0.000001 -0.000001 0.000003 -0.000001 -0.000000 0.581978 7.273772 8.497897 7.811430 -10.318950 55.655882 -22.600818 32.064067 16.612617 -29.604615 9.915806 -17.184293 -2.346160 -6.100524 10.731456 2.364092 -23.806271 -8.771058 -0.000001 -0.000001 0.000002 0.025510 1.878405 -7.695631 0.083888 -0.586094 8.538585 -0.000001 -0.000003 0.000003 0.340928 -5.479837 -0.148382 1.179765 -3.570370 19.817418 0.000001 -0.000001 0.000003 1.205827 -11.756022 4.154765 1.464773 -3.056213 22.258417 0.000001 -0.000001 -0.000001 2.092409 -18.937213 9.756720 3.112158 -1.335946 14.048951 -0.000001 -0.000001 0.000000 0.000004 -0.000000 0.000003 -0.000002 0.000000 0.000001 -0.000002 0.000001 0.000001 -0.000002 0.000000 0.000000 -0.000002 0.000000 0.000000 -0.000002 0.000000 0.000001 -0.000002 0.000001 0.000002 -0.000002 0.000000 0.000000 -0.000002 0.000000 0.000000 -0.000002 0.000000 0.000001 -0.000002 0.000001 0.000002 0.000000 -0.000001 0.000000 0.000000 -0.000001 0.000000 0.000000 -0.000001 0.000000 
-2.862865 64.501411 -3.264454 13.626344 -49.278230 15.681395 -0.000001 -0.000001 0.000000 -33.415574 11.621515 19.061144 20.361718 -9.620843 0.130994 0.762326 -6.376493 -18.525893 0.000000 -0.000003 0.000000 -0.000002 -0.000001 0.000000 -36.580864 -28.049606 -35.971393 44.018233 6.039032 -3.969458 -21.924940 -5.075199 17.493907 0.000000 0.000000 0.000000 -0.000001 -0.000001 -0.000000 14.639669 0.106794 -5.965616 6.003655 0.449539 -5.184507 6.011671 0.414143 -5.196788 -3.951458 2.258736 3.400738 -23.339825 59.695887 3.579005 -0.000000 -0.000000 0.000000 -0.000000 -0.000000 0.000000 -0.000000 -0.000000 0.000000 -0.000000 -0.000000 0.000001 -0.000001 -0.000000 0.000001 -0.000000 -0.000000 0.000001 -0.000001 -0.000000 0.000001 -0.000000 -0.000000 0.000000 -0.000000 -0.000000 0.000000 1.983286 -1.585834 -14.314836 -38.342148 28.069248 -33.794407 0.333375 -53.004976 0.456983 -11.920359 0.936560 1.921171 40.109931 -15.297148 -0.360515 5.639858 28.097925 11.338792 -0.000000 -0.000000 0.000002 6.882236 2.840072 -61.140459 8.248012 7.640018 -89.897878 -0.000002 0.000001 0.000000 -2.345536 4.688860 -62.655231 8.754123 9.897104 -87.051280 0.000003 0.000002 0.000001 -9.042514 10.045661 -60.766171 8.524171 9.508818 -66.893029 -0.000002 0.000001 -0.000001 -17.946928 14.755017 -51.485925 8.868415 8.666984 -84.811948 0.000003 -0.000001 -0.000001 0.000000 -0.000003 -0.000000 0.590796 7.274429 8.291748 7.656497 -10.994959 56.708076 -22.586377 30.018579 15.858974 -31.282413 9.261055 -16.320904 -2.346152 -6.100535 10.731440 2.364069 -23.806300 -8.771072 0.000000 -0.000001 -0.000000 0.140521 2.534608 -11.937171 0.125227 -0.834293 10.270831 0.000001 0.000002 0.000002 0.338091 -5.261262 -1.520727 1.072034 -3.244968 17.692673 0.000002 0.000000 -0.000004 1.205818 -11.756108 4.154802 1.322953 -2.687611 19.947072 0.000001 -0.000001 -0.000004 2.075730 -18.823849 8.971512 3.022883 -0.934177 11.649874 0.000001 0.000000 -0.000001 -0.000000 0.000002 -0.000002 -0.000000 0.000002 -0.000001 0.000003 0.000001 -0.000002 -0.000000 0.000002 -0.000001 -0.000000 0.000002 -0.000001 -0.000000 0.000002 -0.000001 0.000003 0.000001 -0.000002 -0.000000 0.000002 -0.000001 -0.000000 0.000002 -0.000001 -0.000000 0.000002 -0.000001 0.000003 0.000001 -0.000002 -0.000001 -0.000001 0.000000 -0.000001 -0.000001 0.000000 -0.000001 -0.000001 0.000000 
